<svg width="13" height="14" viewBox="0 0 13 14" fill="none" xmlns="http://www.w3.org/2000/svg">
<path d="M0.6875 8.82187C0.728883 8.89915 0.784703 8.96777 0.851947 9.02401C0.813836 8.9446 0.757491 8.87534 0.6875 8.82187Z" fill="#4d9ffd"/>
<path d="M4.71667 13.2177V13.1457C4.75093 13.18 4.78177 13.2348 4.80233 13.2348C4.82288 13.2348 4.82973 13.1902 4.83658 13.1765C4.84343 13.1628 4.86745 13.1526 4.8743 13.1526C4.88116 13.1526 4.90513 13.1526 4.99764 12.9538C5.10338 12.6888 5.22463 12.4303 5.36079 12.1795C5.36079 12.1795 5.45673 12.0151 5.46358 12.0493C5.46358 11.9534 5.55606 11.8575 5.60403 11.7307C5.60403 11.6793 5.58008 11.7513 5.5561 11.7718L5.66914 11.4977C5.73081 11.4018 5.76507 11.3915 5.71026 11.4977C5.77535 11.3812 5.89527 11.1551 6.05287 10.8708C6.1625 10.6652 6.30297 10.4219 6.44002 10.1855L7.10128 9.01723C7.04646 9.04807 6.99846 9.17141 6.93336 9.18854C6.96762 9.0789 7.02587 9.05492 7.02587 8.99668C7.1081 8.99668 7.16294 8.79797 7.26572 8.7637V8.71573L7.3137 8.68147C7.37815 8.51182 7.47079 8.35429 7.58776 8.21552C7.65632 8.06026 7.73414 7.90924 7.82075 7.76327C7.82075 7.78041 7.76252 7.81467 7.7865 7.76327C7.82076 7.76327 7.85844 7.60567 7.90641 7.59882C7.95437 7.59197 8.05372 7.37612 7.97834 7.40696C8.01603 7.40696 8.12225 7.24251 8.07771 7.34529C8.11429 7.30321 8.14433 7.25585 8.16679 7.20482L8.11539 7.26648C8.21063 7.14566 8.2922 7.01467 8.35863 6.87591L8.30042 6.93073C8.36894 6.82795 8.42373 6.73887 8.48883 6.72516L8.42718 6.83822C8.52393 6.70056 8.6109 6.55632 8.68753 6.40654L8.65328 6.45793C8.7355 6.24551 9.38647 5.29647 9.47555 5.10804L9.39333 5.16286L9.47898 5.00526C9.47898 5.02239 9.50639 5.13544 9.47898 5.14572C9.58862 4.99154 9.93809 4.53245 10.2978 4.0802C10.6576 3.62795 11.031 3.19284 11.1544 3.07292C11.2777 2.95301 11.2023 3.07292 11.2058 3.07292C11.3085 2.9393 11.2297 2.99755 11.3257 2.89134C11.3565 2.86393 11.3257 2.91189 11.3257 2.93245C11.3668 2.88106 11.4113 2.84338 11.4045 2.82967C11.3462 2.88449 11.3428 2.82967 11.3017 2.8468L11.4284 2.70633V2.72688C11.465 2.63648 11.5185 2.55392 11.5861 2.48363C11.8019 2.26093 12.0212 2.0074 12.2405 1.79841C12.2405 1.79841 12.2062 1.8635 12.165 1.91489C12.1976 1.88006 12.2319 1.8469 12.2678 1.81554C12.2027 1.85666 12.3466 1.71276 12.3021 1.75045C12.422 1.54831 12.6447 1.37357 12.7749 1.20227C12.7749 1.18171 12.7132 0.97271 12.6755 0.777422C12.6378 0.582133 12.6207 0.414262 12.607 0.400558C12.6505 0.373466 12.6963 0.35052 12.7441 0.332031C12.6748 0.354572 12.609 0.386873 12.5488 0.427962V0.451947C12.4254 0.541026 12.5042 0.451944 12.3843 0.544449C12.3638 0.544449 12.47 0.45195 12.5796 0.39028C12.4803 0.441672 12.3809 0.493061 12.3604 0.5376C12.2679 0.588992 12.3603 0.51019 12.2438 0.578712C12.1736 0.651451 12.0993 0.720088 12.0212 0.784281C11.8259 0.93503 11.7745 1.06522 11.5929 1.20227V1.18171C11.5244 1.22625 11.425 1.34616 11.3119 1.43524C11.3428 1.41126 11.3805 1.39756 11.3119 1.45923C11.1818 1.56544 11.1132 1.65451 11.0139 1.72646L10.9522 1.82239C10.7432 2.02111 10.267 2.5316 9.78391 3.06264C9.30083 3.59369 8.85887 4.14187 8.68071 4.36456V4.34401C7.9212 5.26812 7.21649 6.23595 6.57021 7.24251C6.46368 7.3626 6.36525 7.48965 6.27557 7.6228C6.33382 7.56456 6.3338 7.59883 6.29954 7.65022C6.05286 8.02024 6.29956 7.6879 6.06658 8.07162C5.93639 8.29775 5.60748 8.8288 5.28542 9.35985L4.83658 10.1136L4.66184 10.4117C4.63786 10.4528 4.6139 10.4905 4.59677 10.5247C4.59677 10.6035 4.55222 10.6344 4.54194 10.7234V10.6995C4.53376 10.7283 4.51977 10.7551 4.50083 10.7783L4.40831 10.6583L4.36377 10.6001L4.28841 10.511C4.23359 10.4459 4.18222 10.3911 4.13768 10.3431L4.02459 10.2232L4.0486 10.2609C3.84303 10.0862 3.90811 10.0725 3.77792 9.9183C3.75394 9.97655 3.57577 9.83265 3.51067 9.7744C3.41474 9.68875 3.16808 9.51402 3.01048 9.36669H3.0413C2.87089 9.23365 2.70954 9.08944 2.55825 8.93501C2.30479 8.6489 2.02487 8.38736 1.72225 8.15386L1.5852 7.92087L1.55095 7.90375C1.38362 8.00064 1.22738 8.11553 1.085 8.24636C0.869155 8.44165 0.684157 8.70203 0.797219 8.95214L0.773212 8.97269L0.848619 9.03436C0.927419 9.12687 0.989078 9.13715 0.965095 9.15428L0.845189 9.04122C0.927416 9.12687 0.845156 9.08575 0.810895 9.06519C0.843784 9.09875 0.874679 9.13422 0.903407 9.1714C0.927389 9.1714 0.903407 9.15085 0.903407 9.13372C0.974188 9.1673 1.03811 9.21377 1.09186 9.27076C1.17751 9.35299 1.06444 9.31188 1.16722 9.41123C1.7017 9.93886 2.19507 10.4699 2.72269 11.0147C2.72269 11.0352 2.72266 11.0147 2.69183 11.0147C2.85628 11.1688 2.99335 11.3196 3.1441 11.4635C3.16246 11.4933 3.17195 11.5278 3.17149 11.5628C3.25022 11.6253 3.32149 11.6965 3.38391 11.7753C3.50382 11.902 3.70254 12.1179 3.89783 12.3474L4.43575 12.9675L4.71667 13.2177Z" fill="#4d9ffd"/>
</svg>
