<svg version="1.2" xmlns="http://www.w3.org/2000/svg" viewBox="0 0 1528 411" width="1528" height="411">
	<title>Turkish_Airlines_logo_2019_compact-svg</title>
	<style>
		.s0 { fill: rgb(92 44 156) } 
		.s1 { fill: #ffffff } 
		.s2 { fill: #c70a0c } 
	</style>
	<g id="layer1">
		<g id="g34">
			<g id="text">
				<g id="g539">
					<path id="path110" class="s0" d="m1474.5 181.4v-67.9h-67.9v67.9h-37.3v-160.9h37.3v63.8h67.9v-63.8h37.4v160.9z"/>
					<path id="path122" class="s0" d="m673.2 20.5v100.5c0 10.8 1.4 21 4.8 28.5 3.4 7.5 8.1 14.2 13.6 19 6.1 4.8 13.6 8.8 21.7 10.9 8.1 2 17.7 3.4 28.5 3.4 10.2 0 19.7-1.4 27.9-3.4 8.1-2.1 14.9-6.1 20.3-10.9 5.5-4.8 10.2-11.5 12.9-19 3.4-8.2 4.8-17.7 4.8-28.5v-100.5h-34.6v99.8c0 10.2-2.8 18.3-7.5 24.4-4.8 6.1-12.9 9.5-23.8 9.5-10.8 0-19-3.4-23.7-9.5-4.8-6.1-7.5-14.2-7.5-24.4v-99.8z"/>
					<path id="path126" class="s0" d="m565.9 181.4v-131.1h-43.4v-29.8h124.9v14.2c0 8.9-6.8 15.6-15.6 15.6h-28.5v131.1z"/>
					<path id="path128" class="s0" d="m1163.5 20.5h37.4v160.9h-37.4z"/>
					<path id="path140" class="s0" d="m1039.9 106l1.4 1.4 47.5 61.1c6.1 7.5 15 12.2 25.1 12.2h29.9l-67.9-86.9-0.7-1.4 0.7-1.3 55.7-70.6h-38.7l-51.6 69.2-1.4 1.4v-2.7-67.9h-37.3v160.9h37.3v-72.7z"/>
					<path id="path144" fill-rule="evenodd" class="s0" d="m954.4 181.4c-10.9 0-21.8-6.1-27.2-14.9l-29.2-47.6h-18.3v63.2h-37.4v-161.6h66.6c16.9 0 30.5 4.7 39.4 12.9 9.5 8.8 14.2 21 14.2 35.3q0 11.2-6.1 22.4-6.1 11.2-20.4 18.3l-2 0.7 45.5 70.6h-25.1zm-53-87.6c7.5 0 13.6-2 17.7-6.1q6.1-6.1 6.1-16.3c0-6.8-2.1-12.2-5.5-16.3-4-4.1-9.5-6.1-17.6-6.1h-21.8v44.8z"/>
					<path id="path148" class="s0" d="m1231.4 174.6v-30.5c11.6 5.4 27.2 10.8 42.8 10.8 18.3 0 27.2-6.1 27.2-18.3 0-14.3-12.3-15.6-37.4-26.5-17-7.5-32.6-19-32.6-46.2 0-31.2 23.8-46.1 57.1-46.1 17.6 0 32.5 4 40.7 7.4v29.9c-8.2-4.1-23.1-8.8-38.7-8.8-16.3 0-23.8 6.1-23.8 16.3 0 10.8 9.5 14.2 25.8 20.3 21.1 10.9 46.2 15.7 46.2 51.6 0 31.3-25.1 48.3-58.4 48.3-19.7 0.6-36-2.8-48.9-8.2z"/>
				</g>
				<g id="g530">
					<path id="path152" class="s0" d="m1289.8 391.2v-160.9h100.5v14.3c0 8.8-6.8 15.6-15.6 15.6h-48.2v34.6h54.3v27.2h-54.3v39.3h63.8v29.9z"/>
					<path id="path156" class="s0" d="m921.8 391.2v-160.9h18.3c10.9 0 19 8.8 19 19v112.7h59.1v29.2z"/>
					<path id="path160" class="s0" d="m691.6 391.2v-160.9h37.3v160.9z"/>
					<path id="path172" fill-rule="evenodd" class="s0" d="m874.2 391.2c-10.8 0-21.7-6.1-27.1-14.9l-29.2-47.5h-18.4v63.1h-37.3v-161.6h66.5c17 0 30.6 4.7 39.4 12.9 9.5 8.8 14.3 21 14.3 35.3 0 7.5-2.1 14.9-6.1 23.1q-6.1 11.2-20.4 18.3l-2 0.7 45.5 70.6zm-74.1-87.6h21.8c8.1 0 13.6-2 17.6-6.1q6.1-6.1 6.1-16.3c0-6.8-2-12.2-5.4-16.3-4.1-4.1-9.5-6.1-17.6-6.1h-21.8z"/>
					<path id="path176" fill-rule="evenodd" class="s0" d="m669.2 391.2h-40.1l-9.5-29.9h-65.2l-6.1 19.1c-2 6.8-8.2 10.8-14.9 10.8h-26.5l60.4-160.9h42.8zm-59.1-58.4l-14.3-40.7c-2.7-9.6-6.1-18.4-8.1-25.9h-0.7c-2 6.8-5.4 17-8.8 25.9l-14.3 40.7z"/>
					<path id="path180" class="s0" d="m1420.2 384.4v-30.5c11.5 5.4 27.1 10.8 42.8 10.8 18.3 0 27.1-6.1 27.1-18.3 0-14.3-12.2-15.6-37.3-26.5-17-7.4-32.6-19-32.6-46.1 0-31.3 23.8-46.2 57-46.2 17.7 0 32.6 4.1 40.8 7.4v29.9c-8.2-4.1-23.1-8.8-38.7-8.8-16.3 0-23.8 6.1-23.8 16.3 0 10.9 9.5 14.3 25.8 20.4 21.1 10.8 46.2 15.6 46.2 51.6 0 31.2-25.1 48.2-58.4 48.2-19.7 0.7-36-2.7-48.9-8.2z"/>
					<path id="path184" class="s0" d="m1113.9 230.3h23.1c10.9 0 21.1 5.4 27.2 14.9l44.8 72c4.8 8.2 10.9 18.3 14.3 25.8h0.6c-0.6-7.5-0.6-17-0.6-24.4v-88.3h32.6v160.9h-40.8l-54.3-86.9c-4.8-8.1-10.2-17.6-14.3-25.1h-0.6c0 6.8 0.6 14.9 0.6 23.1v88.9h-32.6z"/>
					<path id="path186" class="s0" d="m1042.6 230.3h37.4v160.9h-37.4z"/>
				</g>
			</g>
			<g id="g32">
				<path id="white" fill-rule="evenodd" class="s1" d="m227.1 1.5c103.2 10.8 184 97.7 184 204.3 0 113.4-91.6 205.1-205 205.1-113.4 0-205.8-91.7-205.8-205.1 0-113.4 91.7-205.7 205.8-205.7 6.7 0 14.2 0.7 21 1.4zm10.9 395.2c105.2-17.7 176.5-117.5 158.9-223.4-15-87.6-86.3-151.5-170.5-160.3-17-2-34.6-1.4-52.3 1.4-21 3.4-40.7 10.1-58.4 19.6 92.4 32 142.6 80.2 146 129.1 2.1 30.5-12.2 52.3-31.2 69.9l131.7-8.8c3.4 0 4.8 4.1 0.7 5.4l-314.4 89.6c31.9 44.2 81.5 73.4 136.5 78.8 17.7 2.1 35.3 2.1 53-1.3zm-86.3-186.8c17-64.5-2.7-132.4-49.5-168.4-63.9 40.8-101.2 116.8-87.6 196.3 4 26.4 13.5 50.2 27.1 71.3 50.3-13.6 94.4-40.1 110-99.2z"/>
				<path id="red" class="s2" d="m238 396.7c105.2-17.7 176.5-117.5 158.9-223.4-15-87.6-86.3-151.5-170.5-160.3-17-2-34.6-1.4-52.3 1.4-21 3.4-40.7 10.1-58.4 19.6 92.4 32 142.6 80.2 146 129.1 2.1 30.5-12.2 52.3-31.2 69.9l131.7-8.8c3.4 0 4.8 4.1 0.7 5.4l-314.4 89.6c31.9 44.2 81.5 73.4 136.5 78.8 17.7 2.1 35.3 2.1 53-1.3zm-86.3-186.8c17-64.5-2.7-132.4-49.5-168.4-63.9 40.8-101.2 116.8-87.6 196.3 4 26.4 13.5 50.2 27.1 71.3 50.3-13.6 94.4-40.1 110-99.2z"/>
			</g>
		</g>
	</g>
</svg>